<?xml version="1.0" standalone="no"?>
<!DOCTYPE svg PUBLIC "-//W3C//DTD SVG 20010904//EN"
 "http://www.w3.org/TR/2001/REC-SVG-20010904/DTD/svg10.dtd">
<svg version="1.0" xmlns="http://www.w3.org/2000/svg"
 width="30.000000pt" height="24.000000pt" viewBox="0 0 30.000000 24.000000"
 preserveAspectRatio="xMidYMid meet">

<g transform="translate(0.000000,24.000000) scale(0.100000,-0.100000)"
fill="#000000" stroke="none">
<path d="M0 199 l0 -40 23 26 c12 14 40 32 62 40 l40 14 -62 1 -63 0 0 -41z"/>
<path d="M206 229 c83 -24 111 -104 54 -152 -16 -14 -44 -28 -61 -32 -17 -4
-50 -16 -73 -26 l-41 -19 108 0 107 0 0 120 0 120 -62 -1 c-54 -1 -59 -2 -32
-10z"/>
<path d="M68 204 c-30 -16 -48 -43 -48 -72 0 -20 39 -62 58 -62 7 0 12 -9 12
-20 0 -25 2 -25 75 1 82 29 95 36 105 65 13 34 -5 69 -45 89 -41 19 -121 19
-157 -1z m47 -54 c0 -8 -8 -16 -17 -18 -13 -2 -18 3 -18 18 0 15 5 20 18 18 9
-2 17 -10 17 -18z m100 0 c0 -8 -8 -16 -17 -18 -13 -2 -18 3 -18 18 0 15 5 20
18 18 9 -2 17 -10 17 -18z m-50 -31 c0 -7 -8 -15 -17 -17 -18 -3 -25 18 -11
32 10 10 28 1 28 -15z"/>
<path d="M0 58 l0 -58 40 0 c34 0 40 3 40 20 0 12 -18 38 -40 59 l-40 38 0
-59z"/>
</g>
</svg>
